<svg width="36" height="57" viewBox="0 0 36 57" fill="none" xmlns="http://www.w3.org/2000/svg">
<path d="M16.1211 0.573486C10.9714 1.82249 7.13452 7.34909 6.3609 14.6331C6.3062 15.1084 6.27494 17.308 6.27494 20.1045C6.27494 24.5589 6.28276 24.8021 6.43904 25.2774C6.68129 26.04 6.95479 26.4711 7.41584 26.8359L7.83782 27.1785V28.1843C7.83782 29.0244 7.86907 29.3007 8.02536 29.7649C8.43171 31.0029 9.20533 31.6882 10.1978 31.6882H10.7916L11.112 32.5172C11.2918 32.9814 11.6669 33.7441 11.9404 34.2304L12.4483 35.1147L11.7919 36.9716L11.1355 38.8175L9.04123 39.8012C5.89204 41.2824 4.75114 42.1998 3.22734 44.4767C1.29719 47.3616 0.171916 51.0644 0.0468862 54.8999L0 56.3921L0.218802 56.6905L0.437605 57H17.9965H35.5554L35.7742 56.6905L35.993 56.3921L35.9461 54.8999C35.8211 51.0644 34.6958 47.3616 32.7657 44.4767C31.2419 42.1998 30.101 41.2824 26.9518 39.8012L24.8575 38.8175L24.2011 36.9606L23.5447 35.1147L23.9198 34.4626C24.8966 32.8046 25.4905 30.9919 25.8031 28.726L26.0062 27.2669H26.983C27.8426 27.2669 28.0067 27.2338 28.3584 27.0017C28.8663 26.6701 29.2961 26.0621 29.5305 25.3437L29.7181 24.78V20.1045C29.7181 17.3191 29.6868 15.1084 29.6321 14.6331C29.257 11.074 28.1708 7.96807 26.4048 5.40373C24.5918 2.76202 22.271 1.08193 19.661 0.529274C18.9186 0.363476 16.8556 0.396633 16.1211 0.573486ZM19.6844 2.89465C23.6541 3.87839 26.8111 8.04544 27.8035 13.6162C27.8973 14.1579 28.0067 14.8984 28.038 15.2411L28.0849 15.8821H27.3503H26.6158L26.5689 14.9095C26.4907 13.2404 26.0062 11.3061 25.2951 9.78079C24.2636 7.60331 22.7164 6.0006 20.8487 5.19372C20.1533 4.89528 20.1142 4.88423 17.9965 4.88423C15.8788 4.88423 15.8397 4.89528 15.1443 5.19372C13.2766 6.0006 11.7294 7.60331 10.6979 9.78079C9.98677 11.3061 9.50228 13.2404 9.42414 14.9095L9.37725 15.8821H8.65051C8.11132 15.8821 7.91596 15.849 7.91596 15.7385C7.93159 14.6774 8.40045 12.3009 8.86931 10.8861C9.38506 9.33866 9.9477 8.23335 10.8776 6.91801C12.4796 4.64106 14.3316 3.32573 16.6681 2.80623C17.1994 2.68464 19.0514 2.73991 19.6844 2.89465ZM20.0595 7.32698C20.755 7.54805 22.0365 8.42125 22.6226 9.07339C23.6072 10.1787 24.4746 12.113 24.795 13.9368C24.9826 15.0089 25.0138 16.8769 24.8419 16.8769C24.7872 16.8769 24.3261 16.7775 23.826 16.6559C21.4426 16.0701 19.2077 14.5337 17.4495 12.2788L16.7853 11.4277L15.9257 11.494C14.2612 11.6156 12.6671 12.6104 11.4871 14.2905C10.9714 15.0089 10.9792 15.0311 11.2918 13.5057C11.9872 10.0792 14.1753 7.52594 16.7384 7.13908C17.5667 7.01749 19.3953 7.11697 20.0595 7.32698ZM16.3242 14.0142C16.6055 14.4673 17.8168 15.7385 18.5748 16.3685C20.1064 17.6617 21.7865 18.5239 23.615 18.966C24.1464 19.0986 24.67 19.1981 24.7716 19.1981C24.9513 19.1981 24.9591 19.2313 24.92 19.6071C24.8966 19.8392 24.8575 20.5466 24.8341 21.1877C24.7403 23.4094 24.3574 27.3664 24.0839 28.9802C23.8807 30.1187 23.2634 31.8761 22.7398 32.7935C21.552 34.8605 19.8954 35.9989 18.0746 36.0211C16.7696 36.0321 15.8085 35.6563 14.7535 34.6947C14.144 34.142 13.3157 33.0146 12.925 32.2077L12.6749 31.6882H13.4173H14.1518L14.3941 32.2851C14.652 32.9372 14.9567 33.3241 15.4959 33.6667C15.8085 33.8657 16.0117 33.8988 17.2151 33.8988C18.4888 33.8988 18.606 33.8767 18.9811 33.6336C19.8563 33.0588 20.3408 31.9645 20.3408 30.5829C20.3408 29.2012 19.8563 28.107 18.9811 27.5322C18.606 27.289 18.4888 27.2669 17.2151 27.2669C16.0117 27.2669 15.8085 27.3001 15.4959 27.499C14.9567 27.8417 14.652 28.2286 14.3941 28.8807L14.1518 29.4776H13.0656H11.9872L11.9013 29.0465C11.6669 27.8085 11.2527 23.122 11.0808 19.7508L11.0339 18.8002L11.6512 17.6507C12.7921 15.5063 13.7377 14.4894 15.0349 14.0031C15.8163 13.7157 16.1367 13.7268 16.3242 14.0142ZM9.43195 19.5518C9.48665 20.9998 9.67419 24.1499 9.75234 24.7689L9.79141 25.0784L9.10375 25.0342C7.86907 24.9458 7.8847 24.99 7.85345 21.1545L7.83 18.0928H8.60363H9.37725L9.43195 19.5518ZM28.1396 21.1545C28.1083 24.99 28.1239 24.9458 26.8893 25.0342L26.2016 25.0784L26.2407 24.7689C26.311 24.1499 26.5064 21.0108 26.5611 19.5518L26.6079 18.0928H27.3894H28.163L28.1396 21.1545ZM10.0884 28.0075C10.1352 28.4275 10.1978 28.9139 10.229 29.1018C10.2759 29.4334 10.2603 29.4444 10.0727 29.4002C9.64294 29.2786 9.40069 28.6707 9.40069 27.698C9.40069 27.2669 9.40069 27.2669 9.70545 27.2669H10.0024L10.0884 28.0075ZM18.0668 29.5439C18.903 29.7871 18.903 31.3787 18.0668 31.6219C17.7464 31.7103 16.6837 31.7103 16.3633 31.6219C15.7694 31.445 15.5193 30.4724 15.9335 29.8865C16.0429 29.7318 16.207 29.577 16.3008 29.5549C16.5821 29.4776 17.8011 29.4776 18.0668 29.5439ZM23.3025 39.8786C23.3103 40.1328 22.6148 42.5866 22.1069 44.123L21.6614 45.4384L20.3799 43.6256L19.0905 41.8129L19.3484 41.415C19.489 41.205 20.2158 40.1107 20.966 39.0054L22.3257 36.9716L22.8102 38.3422C23.0837 39.0828 23.3025 39.7791 23.3025 39.8786ZM15.1599 39.6686L16.7384 41.9124L15.535 43.6809L14.3394 45.4494L13.894 44.123C13.4173 42.7082 12.6827 40.1439 12.6827 39.9007C12.6827 39.7349 13.4798 37.4359 13.5423 37.4359C13.5658 37.4359 14.2925 38.4417 15.1599 39.6686ZM18.0903 38.3533H19.0827L18.5279 39.1933C18.2231 39.6576 17.9574 40.0444 17.9262 40.0665C17.9027 40.0776 17.5745 39.6576 17.2151 39.1381C16.5665 38.2096 16.5587 38.1875 16.8243 38.2759C16.9728 38.3201 17.5433 38.3533 18.0903 38.3533ZM11.6278 42.653C12.4639 45.6263 13.597 48.5333 15.4256 52.3798C15.8397 53.253 16.2539 54.1483 16.3477 54.3693L16.5274 54.7894H9.09593C2.86006 54.7894 1.66446 54.7673 1.66446 54.6346C1.66446 54.2257 1.92234 52.4903 2.10207 51.6724C2.87569 48.2238 4.55578 45.2615 6.70473 43.5593C7.19704 43.1725 10.8229 41.3266 11.1277 41.3155C11.2136 41.3045 11.3621 41.7134 11.6278 42.653ZM26.7955 42.1887C27.8504 42.6972 28.921 43.283 29.2492 43.5372C31.406 45.2063 33.1095 48.2017 33.8909 51.6724C34.0707 52.4903 34.3285 54.2257 34.3285 54.6346C34.3285 54.7673 33.1329 54.7894 26.8971 54.7894H19.4656L19.6453 54.3693C19.7391 54.1483 20.1533 53.253 20.5674 52.3798C22.3726 48.5885 23.5525 45.571 24.3652 42.653C24.5762 41.9124 24.7872 41.3045 24.8341 41.3045C24.881 41.3045 25.764 41.7024 26.7955 42.1887ZM19.364 45.6152L20.7706 47.6048L20.6299 47.9695C20.5518 48.1685 20.208 48.9091 19.872 49.6054C19.5359 50.3018 18.9811 51.4734 18.6529 52.214C18.3247 52.9656 18.0278 53.5735 18.0043 53.5735C17.9809 53.5735 17.6839 52.9656 17.3479 52.214C17.0119 51.4734 16.4024 50.1691 15.996 49.3291C15.5897 48.489 15.2615 47.7264 15.2615 47.649C15.2615 47.5164 17.8168 43.6256 17.9105 43.6256C17.934 43.6256 18.5904 44.521 19.364 45.6152Z" fill="#F69320"/>
<path d="M26.0141 44.4659C25.85 44.698 25.8109 44.8638 25.8109 45.2838C25.8109 45.7039 25.85 45.8697 26.0141 46.1018C26.1782 46.3339 26.2954 46.3892 26.5924 46.3892C27.1081 46.3892 27.3738 46.0134 27.3738 45.2838C27.3738 44.8638 27.3347 44.698 27.1706 44.4659C26.8737 44.0569 26.311 44.0569 26.0141 44.4659Z" fill="#F69320"/>
<path d="M28.7725 46.5989C28.5928 46.8532 28.5459 47.019 28.5459 47.3837C28.5459 47.8258 28.5928 47.9143 29.2023 48.8096C29.9837 49.937 30.0853 50.1028 30.4604 51.0092C30.7808 51.7829 30.9058 51.9155 31.3591 51.9155C31.7732 51.9155 32.1405 51.4292 32.1405 50.8655C32.1405 49.9702 30.7105 47.24 29.8353 46.4774C29.468 46.1679 29.046 46.2121 28.7725 46.5989Z" fill="#F69320"/>
</svg>
