<svg width="50" height="50" viewBox="0 0 50 50" fill="none" xmlns="http://www.w3.org/2000/svg">
<path d="M1.85708 0.162369C1.58371 0.259998 1.21272 0.523598 0.871019 0.865303C-0.0857509 1.83183 0.00211569 -0.716297 0.00211569 24.9896C0.00211569 50.6954 -0.0857509 48.1473 0.871019 49.1138C1.82779 50.0706 -0.0271735 49.9827 19.7233 49.9827C39.4738 49.9827 37.6188 50.0706 38.5756 49.1138C39.5323 48.1473 39.4445 50.6954 39.4445 24.9896C39.4445 -0.716297 39.5323 1.83183 38.5756 0.865303C37.6188 -0.0914688 39.4738 -0.00360107 19.6842 0.00616074C4.07327 0.00616074 2.2476 0.0256882 1.85708 0.162369ZM36.9744 2.20283C37.1209 2.31022 37.2966 2.55429 37.365 2.73979C37.5309 3.21817 37.5309 46.761 37.365 47.2394C37.2966 47.4249 37.1209 47.6689 36.9744 47.7763L36.7011 47.9813H19.7233H2.74551L2.47214 47.7763C2.3257 47.6689 2.1402 47.4053 2.07186 47.2003C1.97423 46.9172 1.95471 42.2993 1.97423 24.7943L2.00352 2.73979L2.20854 2.46643C2.31594 2.31998 2.56001 2.14425 2.74551 2.07591C2.99934 1.98804 7.02168 1.95875 19.8893 1.97828L36.7011 1.99781L36.9744 2.20283Z" fill="#F69320"/>
<path d="M18.0246 7.86569C17.8196 8.07071 17.7708 8.21716 17.7708 8.58815C17.7708 8.95914 17.8196 9.10559 18.0246 9.31061L18.2882 9.56444H21.9591C26.0302 9.56444 25.9521 9.57421 26.1669 8.92985C26.2548 8.67602 26.2548 8.50028 26.1669 8.24645C25.9521 7.60209 26.0302 7.61185 21.9591 7.61185H18.2882L18.0246 7.86569Z" fill="#F69320"/>
<path d="M28.9883 7.89499C28.7638 8.11954 28.7052 8.26598 28.7052 8.58816C28.7052 8.91033 28.7638 9.05678 28.9883 9.28133L29.2715 9.56445H31.4681H33.655L33.9186 9.31062C34.2798 8.93962 34.2798 8.23669 33.9186 7.8657L33.655 7.61186H31.4681H29.2715L28.9883 7.89499Z" fill="#F69320"/>
<path d="M12.2059 9.64231C12.0497 9.66184 11.2784 10.3648 10.1361 11.4973L8.31045 13.3034L7.51965 12.5614C6.77767 11.839 6.71909 11.8097 6.27975 11.8097C5.91853 11.8097 5.76232 11.8585 5.54753 12.0733C5.32298 12.2881 5.27417 12.415 5.27417 12.825V13.3034L6.52383 14.5628L7.78325 15.8125H8.30069H8.81812L10.9562 13.6842C12.1375 12.5224 13.1919 11.4485 13.2896 11.302C13.5141 10.9896 13.5532 10.3745 13.3677 10.0719C13.1626 9.73994 12.6647 9.55444 12.2059 9.64231Z" fill="#F69320"/>
<path d="M18.0246 14.1137C17.8196 14.3188 17.7708 14.4652 17.7708 14.8362C17.7708 15.2072 17.8196 15.3536 18.0246 15.5587L18.2882 15.8125H25.9716H33.6551L33.9187 15.5587C34.2799 15.1877 34.2799 14.4847 33.9187 14.1137L33.6551 13.8599H25.9716H18.2882L18.0246 14.1137Z" fill="#F69320"/>
<path d="M5.52801 21.1433C5.32298 21.3581 5.27417 21.4948 5.27417 21.8853V22.3734L6.56288 23.6817L7.84183 24.9899L6.56288 26.2981L5.27417 27.6064V28.0945C5.27417 28.7682 5.59635 29.0903 6.26999 29.0903H6.75814L8.06638 27.8016L9.37461 26.5227L10.6828 27.8016L11.9911 29.0903H12.4792C13.1529 29.0903 13.4751 28.7682 13.4751 28.0945V27.6064L12.1863 26.2981L10.9074 24.9899L12.1863 23.6817L13.4751 22.3734V21.8853C13.4751 21.2116 13.1529 20.8894 12.4792 20.8894H11.9911L10.6828 22.1782L9.37461 23.4571L8.06638 22.1782L6.75814 20.8894H6.26999C5.87947 20.8894 5.74279 20.9383 5.52801 21.1433Z" fill="#F69320"/>
<path d="M18.0246 21.143C17.8196 21.3481 17.7708 21.4945 17.7708 21.8655C17.7708 22.2365 17.8196 22.3829 18.0246 22.588L18.2882 22.8418H21.9591C26.0302 22.8418 25.9521 22.8516 26.1669 22.2072C26.2548 21.9534 26.2548 21.7776 26.1669 21.5238C25.9521 20.8794 26.0302 20.8892 21.9591 20.8892H18.2882L18.0246 21.143Z" fill="#F69320"/>
<path d="M28.9883 21.1723C28.7638 21.3969 28.7052 21.5433 28.7052 21.8655C28.7052 22.1877 28.7638 22.3341 28.9883 22.5587L29.2715 22.8418H31.4681H33.655L33.9186 22.588C34.2798 22.217 34.2798 21.514 33.9186 21.143L33.655 20.8892H31.4681H29.2715L28.9883 21.1723Z" fill="#F69320"/>
<path d="M18.0246 27.3916C17.8196 27.5966 17.7708 27.743 17.7708 28.114C17.7708 28.485 17.8196 28.6315 18.0246 28.8365L18.2882 29.0903H25.9716H33.6551L33.9187 28.8365C34.2799 28.4655 34.2799 27.7626 33.9187 27.3916L33.6551 27.1377H25.9716H18.2882L18.0246 27.3916Z" fill="#F69320"/>
<path d="M5.52801 34.4206C5.32298 34.6354 5.27417 34.7721 5.27417 35.1626V35.6508L6.56288 36.959L7.84183 38.2672L6.56288 39.5755L5.27417 40.8837V41.3719C5.27417 42.0455 5.59635 42.3677 6.26999 42.3677H6.75814L8.06638 41.079L9.37461 39.8L10.6828 41.079L11.9911 42.3677H12.4792C13.1529 42.3677 13.4751 42.0455 13.4751 41.3719V40.8837L12.1863 39.5755L10.9074 38.2672L12.1863 36.959L13.4751 35.6508V35.1626C13.4751 34.489 13.1529 34.1668 12.4792 34.1668H11.9911L10.6828 35.4555L9.37461 36.7344L8.06638 35.4555L6.75814 34.1668H6.26999C5.87947 34.1668 5.74279 34.2156 5.52801 34.4206Z" fill="#F69320"/>
<path d="M18.0246 34.4209C17.8196 34.6259 17.7708 34.7723 17.7708 35.1433C17.7708 35.5143 17.8196 35.6608 18.0246 35.8658L18.2882 36.1196H21.9591C26.0302 36.1196 25.9521 36.1294 26.1669 35.485C26.2548 35.2312 26.2548 35.0555 26.1669 34.8016C25.9521 34.1573 26.0302 34.167 21.9591 34.167H18.2882L18.0246 34.4209Z" fill="#F69320"/>
<path d="M28.9883 34.4502C28.7638 34.6747 28.7052 34.8212 28.7052 35.1433C28.7052 35.4655 28.7638 35.612 28.9883 35.8365L29.2715 36.1196H31.4681H33.655L33.9186 35.8658C34.2798 35.4948 34.2798 34.7919 33.9186 34.4209L33.655 34.167H31.4681H29.2715L28.9883 34.4502Z" fill="#F69320"/>
<path d="M18.0246 40.6689C17.8196 40.8739 17.7708 41.0204 17.7708 41.3914C17.7708 41.7624 17.8196 41.9088 18.0246 42.1138L18.2882 42.3677H25.9716H33.6551L33.9187 42.1138C34.2799 41.7428 34.2799 41.0399 33.9187 40.6689L33.6551 40.4151H25.9716H18.2882L18.0246 40.6689Z" fill="#F69320"/>
<path d="M44.8727 5.50288C43.8573 5.93245 43.1446 6.66467 42.7736 7.66049C42.5686 8.19745 42.5686 8.34389 42.5686 15.9492V23.6913L42.8224 23.9549C43.1934 24.3161 43.8964 24.3161 44.2674 23.9549L44.5212 23.6913V17.9018V12.1026H46.2785H48.0359V26.9911V41.8797H46.2785H44.5212V36.7151V31.5602L44.2674 31.2966C43.8964 30.9354 43.1934 30.9354 42.8224 31.2966L42.5686 31.5602V37.4277V43.3051L43.9745 46.4194C44.7457 48.1377 45.478 49.6412 45.5951 49.7584C45.8978 50.0805 46.6593 50.0805 46.9619 49.7584C47.0791 49.6314 47.8113 48.128 48.5826 46.4194L49.9885 43.3051L49.9689 25.6243L49.9396 7.95338L49.6272 7.30902C49.2465 6.53775 48.6314 5.94221 47.8601 5.58098C47.4013 5.3662 47.1377 5.31738 46.3762 5.28809C45.5756 5.26857 45.3706 5.29785 44.8727 5.50288ZM46.9912 7.45547C47.6551 7.72883 48.0359 8.51963 48.0359 9.61308V10.0524H46.2785H44.5212V9.61308C44.5212 8.16816 45.146 7.31879 46.2102 7.31879C46.464 7.31879 46.8155 7.37737 46.9912 7.45547ZM46.8838 45.1503C46.5812 45.8239 46.3078 46.3706 46.2785 46.3706C46.2492 46.3706 45.9759 45.8239 45.6732 45.1503L45.1265 43.9299H46.2785H47.4306L46.8838 45.1503Z" fill="#F69320"/>
<path d="M42.8224 26.9033C42.6174 27.1083 42.5686 27.2548 42.5686 27.6258C42.5686 27.9967 42.6174 28.1432 42.8224 28.3482C43.0275 28.5532 43.1739 28.6021 43.5449 28.6021C43.9159 28.6021 44.0623 28.5532 44.2674 28.3482C44.4724 28.1432 44.5212 27.9967 44.5212 27.6258C44.5212 27.2548 44.4724 27.1083 44.2674 26.9033C44.0623 26.6983 43.9159 26.6495 43.5449 26.6495C43.1739 26.6495 43.0275 26.6983 42.8224 26.9033Z" fill="#F69320"/>
</svg>
