<svg width="42" height="58" viewBox="0 0 42 58" fill="none" xmlns="http://www.w3.org/2000/svg">
<path d="M21.6182 4.55437L21.6182 4.55435C21.6328 2.65935 21.633 1.64035 21.558 1.09592C21.5207 0.824985 21.4635 0.659035 21.3694 0.562685C21.2723 0.463184 21.1457 0.447357 21.0025 0.447357C20.8948 0.447357 20.7987 0.478057 20.7163 0.540229C20.6346 0.601826 20.5691 0.692225 20.518 0.807747C20.445 0.962976 20.4062 1.17972 20.3879 1.71159L21.6182 4.55437ZM21.6182 4.55437C21.6085 5.76861 21.5938 6.62481 21.5706 7.19315C21.559 7.4772 21.5453 7.69027 21.5288 7.84054C21.5205 7.9156 21.5115 7.97602 21.5015 8.02224C21.4919 8.06627 21.4801 8.10435 21.4627 8.12891C21.3708 8.25903 21.1794 8.31563 21.0025 8.31563C20.8255 8.31563 20.6342 8.25903 20.5422 8.12891C20.5248 8.10435 20.513 8.06627 20.5034 8.02224C20.4934 7.97602 20.4844 7.9156 20.4761 7.84054C20.4596 7.69027 20.4459 7.4772 20.4343 7.19315C20.4111 6.62481 20.3964 5.76863 20.3867 4.55442L21.6182 4.55437Z" fill="#F69320" stroke="#FF3E54" stroke-width="0.1"/>
<path d="M11.0046 4.23663L11.0045 4.23661L11.0057 4.23587C11.0747 4.19078 11.1585 4.15767 11.2389 4.13931C11.3185 4.12115 11.4005 4.11617 11.4649 4.13273L11.465 4.13254L11.4691 4.13402C11.4876 4.14054 11.5029 4.15392 11.5144 4.16575C11.527 4.17864 11.5401 4.1951 11.5537 4.21418C11.581 4.25243 11.6131 4.30538 11.6497 4.37147C11.723 4.5039 11.8165 4.6936 11.9283 4.93453C12.1518 5.41666 12.4497 6.1073 12.8058 6.96293L12.8059 6.96326C12.8675 7.11427 12.9264 7.2585 12.9827 7.39631C13.576 8.84985 13.8774 9.58808 14.0084 10.008C14.0802 10.2379 14.1032 10.3791 14.092 10.4932C14.0822 10.5925 14.0462 10.6686 14.0045 10.7568C13.9982 10.7701 13.9918 10.7837 13.9853 10.7976L13.9852 10.7979C13.882 11.0169 13.7105 11.1481 13.5275 11.1695C13.3431 11.1911 13.1597 11.0996 13.039 10.8994C13.0168 10.864 12.9658 10.7537 12.8943 10.5913C12.8216 10.426 12.7258 10.2019 12.6136 9.93535C12.3891 9.40215 12.0988 8.69824 11.7963 7.95301L11.7963 7.95294C11.2116 6.5057 10.8926 5.66646 10.7781 5.1492C10.7208 4.89043 10.7129 4.70517 10.7534 4.5619C10.7946 4.41566 10.8842 4.31996 11.0046 4.23663Z" fill="#F69320" stroke="#FF3E54" stroke-width="0.1"/>
<path d="M30.4981 4.16573L30.498 4.1656L30.5015 4.16393C30.7072 4.0644 30.9101 4.11124 31.0582 4.25596C31.2042 4.39864 31.2951 4.63361 31.2951 4.91263C31.2951 4.94149 31.2857 4.98724 31.2715 5.04223C31.2568 5.09925 31.2354 5.17199 31.2083 5.25796C31.1539 5.42998 31.076 5.65697 30.9816 5.92099C30.7927 6.44913 30.537 7.12699 30.2699 7.81283C30.0027 8.4987 29.724 9.19289 29.4887 9.75372C29.2544 10.3123 29.0615 10.7432 28.9663 10.8992C28.8548 11.0868 28.6741 11.1763 28.4935 11.1647C28.3133 11.1531 28.14 11.0414 28.0401 10.841C27.9949 10.7558 27.955 10.6604 27.9262 10.5755C27.8981 10.4924 27.8785 10.4132 27.8785 10.3628C27.8785 10.3469 27.882 10.3271 27.8867 10.3064C27.8916 10.2847 27.8988 10.2584 27.9079 10.2281C27.9261 10.1675 27.9526 10.0886 27.9861 9.99449C28.0531 9.8062 28.1488 9.55498 28.2641 9.26265C28.4946 8.67789 28.8035 7.92723 29.1176 7.18364C29.4317 6.44006 29.751 5.7032 30.0023 5.14605C30.1279 4.86754 30.2366 4.63354 30.3193 4.46595C30.3606 4.38225 30.3957 4.31448 30.4233 4.26581C30.4371 4.24155 30.4494 4.22123 30.4601 4.20578C30.4654 4.19808 30.4708 4.19086 30.4762 4.18471C30.4808 4.17937 30.4883 4.17145 30.4981 4.16573Z" fill="#F69320" stroke="#FF3E54" stroke-width="0.1"/>
<mask id="path-4-outside-1_88_8505" maskUnits="userSpaceOnUse" x="10.2455" y="11" width="21" height="47" fill="black">
<rect fill="white" x="10.2455" y="11" width="21" height="47"/>
<path d="M19.9587 11.2735C17.1493 11.646 14.4667 13.9641 12.8669 17.386C12.2523 18.6968 11.9109 19.7178 11.5695 21.3322C11.228 22.919 11.1403 25.9683 11.3841 27.6655C11.7548 30.2181 12.4962 32.3016 13.7546 34.3575C15.0032 36.372 15.2568 36.8549 15.5397 37.7104C15.7055 38.1657 15.8616 38.828 15.8909 39.1592C15.9494 39.7387 15.9397 39.7663 15.608 39.9319C15.169 40.1527 14.5837 40.9667 14.3594 41.6704C14.096 42.4983 14.1155 43.8367 14.4081 44.7336C14.6423 45.4511 15.2276 46.2514 15.6177 46.3893C15.7348 46.4445 15.8324 46.4997 15.8324 46.5273C15.8324 46.5411 15.7348 46.8033 15.6177 47.093C15.4324 47.5208 15.3934 47.8243 15.3934 48.7212C15.3934 49.6871 15.4324 49.9078 15.6665 50.4873C15.9592 51.191 16.603 51.9361 17.0127 52.0603C17.2371 52.1155 17.2858 52.2121 17.3346 52.7778C17.4809 54.3094 18.3101 55.841 19.3929 56.5999C19.9294 56.9586 20.066 57 21.0025 57C21.9097 57 22.095 56.9586 22.5827 56.6275C23.646 55.9238 24.524 54.2956 24.6703 52.7778C24.7191 52.2121 24.7678 52.1155 24.9922 52.0603C25.4019 51.9361 26.0457 51.191 26.3384 50.4873C26.5725 49.9078 26.6115 49.6871 26.6115 48.7212C26.6115 47.8243 26.5725 47.5208 26.3969 47.093C26.2701 46.8033 26.1725 46.5411 26.1725 46.5273C26.1725 46.4997 26.2701 46.4445 26.3969 46.3893C26.7773 46.2514 27.3626 45.4511 27.5968 44.7336C27.8894 43.8367 27.9089 42.4983 27.6455 41.6704C27.4212 40.9667 26.8359 40.1527 26.3969 39.9319C26.0652 39.7663 26.0555 39.7387 26.114 39.1592C26.2311 37.945 26.7091 36.8825 28.2503 34.3575C29.5185 32.3016 30.2501 30.2181 30.6208 27.6655C30.8646 25.9407 30.7769 22.9328 30.4257 21.2632C29.2453 15.675 26.0847 11.9082 22.0462 11.2735C21.5292 11.1907 21.0317 11.1355 20.9342 11.1355C20.8366 11.1493 20.3976 11.2045 19.9587 11.2735ZM23.3436 13.1914C26.3091 14.4056 28.66 17.8137 29.4502 22.0911C29.7233 23.5537 29.7038 26.6858 29.4112 28.1346C28.9624 30.3423 28.4259 31.6669 27.0993 33.8056C25.6653 36.1236 25.3044 37.0343 24.9629 39.1592C24.9044 39.5455 24.8947 39.5455 24.0752 39.5455H23.2461V35.0612V30.5769H24.1045C25.1971 30.5769 25.8701 30.3009 26.3872 29.6386C27.7431 27.9138 27.4504 24.7403 25.8311 23.6089C25.5385 23.4019 25.2361 23.3329 24.6508 23.3329C23.9484 23.3329 23.8119 23.3743 23.3924 23.7468C22.4169 24.6023 22.0755 25.6786 22.0755 27.8862V29.0591H21.0122H19.9587L19.9099 27.4999C19.8416 25.3612 19.5392 24.5057 18.5735 23.7055C18.1833 23.3881 18.0175 23.3329 17.3444 23.3329C16.7688 23.3329 16.4664 23.4019 16.1738 23.6089C14.5545 24.7403 14.2618 27.9138 15.6177 29.6386C16.1348 30.3009 16.8078 30.5769 17.9004 30.5769H18.7588V35.0612V39.5455H17.9297C17.1102 39.5455 17.1005 39.5455 17.0517 39.1592C16.7396 37.1447 16.3201 36.096 14.8666 33.7366C12.9449 30.6458 12.2328 28.0104 12.3499 24.5195C12.4572 21.139 13.4131 18.2966 15.2276 15.951C16.3103 14.5298 17.7833 13.4397 19.1978 12.9982C20.1928 12.6809 22.3681 12.7912 23.3436 13.1914ZM17.9394 25.0715C18.6027 25.5268 18.7588 26.0097 18.7588 27.6655V29.0591H18.0565C17.1102 29.0591 16.6323 28.8521 16.2518 28.2864C15.7348 27.4999 15.7055 26.4237 16.1933 25.5958C16.681 24.7817 17.2663 24.6023 17.9394 25.0715ZM25.4799 25.1542C25.9482 25.651 26.1238 26.1339 26.1238 26.8928C26.1238 27.4171 26.0652 27.7345 25.8994 28.0656C25.5482 28.7555 25.1678 28.9625 24.1533 29.0315L23.2461 29.0867V27.6793C23.2461 26.4926 23.2753 26.1891 23.4412 25.8165C23.8606 24.8645 24.8849 24.5333 25.4799 25.1542ZM22.0755 35.0612V39.5455H21.0025H19.9294V35.0612V30.5769H21.0025H22.0755V35.0612ZM26.0555 41.4773C27.0115 42.3051 26.9724 44.1403 25.9774 44.8854C25.558 45.2027 25.5482 45.2027 21.0025 45.2027C16.4567 45.2027 16.4469 45.2027 16.0275 44.8854C15.0325 44.1403 14.9934 42.3051 15.9494 41.4773C16.2616 41.2151 16.4567 41.2013 21.0025 41.2013C25.5482 41.2013 25.7433 41.2151 26.0555 41.4773ZM24.7776 46.9551C25.158 47.2034 25.4604 47.7967 25.5482 48.4728C25.6458 49.1765 25.2848 50.0872 24.7678 50.4322C24.3776 50.7081 24.1923 50.7219 21.0025 50.7219C17.8126 50.7219 17.6273 50.7081 17.2371 50.4322C16.2226 49.7423 16.203 47.6588 17.2078 46.9551C17.5004 46.7619 17.9687 46.7205 20.9829 46.7205C24.007 46.7205 24.4752 46.7481 24.7776 46.9551ZM23.6363 52.4053C23.6363 52.7778 23.168 53.992 22.8559 54.4198C22.3096 55.2063 21.8316 55.4822 21.0025 55.4822C20.1733 55.4822 19.6953 55.2063 19.149 54.4198C18.8369 53.992 18.3686 52.7778 18.3686 52.4053C18.3686 52.2811 18.9637 52.2397 21.0025 52.2397C23.0412 52.2397 23.6363 52.2811 23.6363 52.4053Z"/>
</mask>
<path d="M19.9587 11.2735C17.1493 11.646 14.4667 13.9641 12.8669 17.386C12.2523 18.6968 11.9109 19.7178 11.5695 21.3322C11.228 22.919 11.1403 25.9683 11.3841 27.6655C11.7548 30.2181 12.4962 32.3016 13.7546 34.3575C15.0032 36.372 15.2568 36.8549 15.5397 37.7104C15.7055 38.1657 15.8616 38.828 15.8909 39.1592C15.9494 39.7387 15.9397 39.7663 15.608 39.9319C15.169 40.1527 14.5837 40.9667 14.3594 41.6704C14.096 42.4983 14.1155 43.8367 14.4081 44.7336C14.6423 45.4511 15.2276 46.2514 15.6177 46.3893C15.7348 46.4445 15.8324 46.4997 15.8324 46.5273C15.8324 46.5411 15.7348 46.8033 15.6177 47.093C15.4324 47.5208 15.3934 47.8243 15.3934 48.7212C15.3934 49.6871 15.4324 49.9078 15.6665 50.4873C15.9592 51.191 16.603 51.9361 17.0127 52.0603C17.2371 52.1155 17.2858 52.2121 17.3346 52.7778C17.4809 54.3094 18.3101 55.841 19.3929 56.5999C19.9294 56.9586 20.066 57 21.0025 57C21.9097 57 22.095 56.9586 22.5827 56.6275C23.646 55.9238 24.524 54.2956 24.6703 52.7778C24.7191 52.2121 24.7678 52.1155 24.9922 52.0603C25.4019 51.9361 26.0457 51.191 26.3384 50.4873C26.5725 49.9078 26.6115 49.6871 26.6115 48.7212C26.6115 47.8243 26.5725 47.5208 26.3969 47.093C26.2701 46.8033 26.1725 46.5411 26.1725 46.5273C26.1725 46.4997 26.2701 46.4445 26.3969 46.3893C26.7773 46.2514 27.3626 45.4511 27.5968 44.7336C27.8894 43.8367 27.9089 42.4983 27.6455 41.6704C27.4212 40.9667 26.8359 40.1527 26.3969 39.9319C26.0652 39.7663 26.0555 39.7387 26.114 39.1592C26.2311 37.945 26.7091 36.8825 28.2503 34.3575C29.5185 32.3016 30.2501 30.2181 30.6208 27.6655C30.8646 25.9407 30.7769 22.9328 30.4257 21.2632C29.2453 15.675 26.0847 11.9082 22.0462 11.2735C21.5292 11.1907 21.0317 11.1355 20.9342 11.1355C20.8366 11.1493 20.3976 11.2045 19.9587 11.2735ZM23.3436 13.1914C26.3091 14.4056 28.66 17.8137 29.4502 22.0911C29.7233 23.5537 29.7038 26.6858 29.4112 28.1346C28.9624 30.3423 28.4259 31.6669 27.0993 33.8056C25.6653 36.1236 25.3044 37.0343 24.9629 39.1592C24.9044 39.5455 24.8947 39.5455 24.0752 39.5455H23.2461V35.0612V30.5769H24.1045C25.1971 30.5769 25.8701 30.3009 26.3872 29.6386C27.7431 27.9138 27.4504 24.7403 25.8311 23.6089C25.5385 23.4019 25.2361 23.3329 24.6508 23.3329C23.9484 23.3329 23.8119 23.3743 23.3924 23.7468C22.4169 24.6023 22.0755 25.6786 22.0755 27.8862V29.0591H21.0122H19.9587L19.9099 27.4999C19.8416 25.3612 19.5392 24.5057 18.5735 23.7055C18.1833 23.3881 18.0175 23.3329 17.3444 23.3329C16.7688 23.3329 16.4664 23.4019 16.1738 23.6089C14.5545 24.7403 14.2618 27.9138 15.6177 29.6386C16.1348 30.3009 16.8078 30.5769 17.9004 30.5769H18.7588V35.0612V39.5455H17.9297C17.1102 39.5455 17.1005 39.5455 17.0517 39.1592C16.7396 37.1447 16.3201 36.096 14.8666 33.7366C12.9449 30.6458 12.2328 28.0104 12.3499 24.5195C12.4572 21.139 13.4131 18.2966 15.2276 15.951C16.3103 14.5298 17.7833 13.4397 19.1978 12.9982C20.1928 12.6809 22.3681 12.7912 23.3436 13.1914ZM17.9394 25.0715C18.6027 25.5268 18.7588 26.0097 18.7588 27.6655V29.0591H18.0565C17.1102 29.0591 16.6323 28.8521 16.2518 28.2864C15.7348 27.4999 15.7055 26.4237 16.1933 25.5958C16.681 24.7817 17.2663 24.6023 17.9394 25.0715ZM25.4799 25.1542C25.9482 25.651 26.1238 26.1339 26.1238 26.8928C26.1238 27.4171 26.0652 27.7345 25.8994 28.0656C25.5482 28.7555 25.1678 28.9625 24.1533 29.0315L23.2461 29.0867V27.6793C23.2461 26.4926 23.2753 26.1891 23.4412 25.8165C23.8606 24.8645 24.8849 24.5333 25.4799 25.1542ZM22.0755 35.0612V39.5455H21.0025H19.9294V35.0612V30.5769H21.0025H22.0755V35.0612ZM26.0555 41.4773C27.0115 42.3051 26.9724 44.1403 25.9774 44.8854C25.558 45.2027 25.5482 45.2027 21.0025 45.2027C16.4567 45.2027 16.4469 45.2027 16.0275 44.8854C15.0325 44.1403 14.9934 42.3051 15.9494 41.4773C16.2616 41.2151 16.4567 41.2013 21.0025 41.2013C25.5482 41.2013 25.7433 41.2151 26.0555 41.4773ZM24.7776 46.9551C25.158 47.2034 25.4604 47.7967 25.5482 48.4728C25.6458 49.1765 25.2848 50.0872 24.7678 50.4322C24.3776 50.7081 24.1923 50.7219 21.0025 50.7219C17.8126 50.7219 17.6273 50.7081 17.2371 50.4322C16.2226 49.7423 16.203 47.6588 17.2078 46.9551C17.5004 46.7619 17.9687 46.7205 20.9829 46.7205C24.007 46.7205 24.4752 46.7481 24.7776 46.9551ZM23.6363 52.4053C23.6363 52.7778 23.168 53.992 22.8559 54.4198C22.3096 55.2063 21.8316 55.4822 21.0025 55.4822C20.1733 55.4822 19.6953 55.2063 19.149 54.4198C18.8369 53.992 18.3686 52.7778 18.3686 52.4053C18.3686 52.2811 18.9637 52.2397 21.0025 52.2397C23.0412 52.2397 23.6363 52.2811 23.6363 52.4053Z" fill="#F69320"/>
<path d="M19.9587 11.2735C17.1493 11.646 14.4667 13.9641 12.8669 17.386C12.2523 18.6968 11.9109 19.7178 11.5695 21.3322C11.228 22.919 11.1403 25.9683 11.3841 27.6655C11.7548 30.2181 12.4962 32.3016 13.7546 34.3575C15.0032 36.372 15.2568 36.8549 15.5397 37.7104C15.7055 38.1657 15.8616 38.828 15.8909 39.1592C15.9494 39.7387 15.9397 39.7663 15.608 39.9319C15.169 40.1527 14.5837 40.9667 14.3594 41.6704C14.096 42.4983 14.1155 43.8367 14.4081 44.7336C14.6423 45.4511 15.2276 46.2514 15.6177 46.3893C15.7348 46.4445 15.8324 46.4997 15.8324 46.5273C15.8324 46.5411 15.7348 46.8033 15.6177 47.093C15.4324 47.5208 15.3934 47.8243 15.3934 48.7212C15.3934 49.6871 15.4324 49.9078 15.6665 50.4873C15.9592 51.191 16.603 51.9361 17.0127 52.0603C17.2371 52.1155 17.2858 52.2121 17.3346 52.7778C17.4809 54.3094 18.3101 55.841 19.3929 56.5999C19.9294 56.9586 20.066 57 21.0025 57C21.9097 57 22.095 56.9586 22.5827 56.6275C23.646 55.9238 24.524 54.2956 24.6703 52.7778C24.7191 52.2121 24.7678 52.1155 24.9922 52.0603C25.4019 51.9361 26.0457 51.191 26.3384 50.4873C26.5725 49.9078 26.6115 49.6871 26.6115 48.7212C26.6115 47.8243 26.5725 47.5208 26.3969 47.093C26.2701 46.8033 26.1725 46.5411 26.1725 46.5273C26.1725 46.4997 26.2701 46.4445 26.3969 46.3893C26.7773 46.2514 27.3626 45.4511 27.5968 44.7336C27.8894 43.8367 27.9089 42.4983 27.6455 41.6704C27.4212 40.9667 26.8359 40.1527 26.3969 39.9319C26.0652 39.7663 26.0555 39.7387 26.114 39.1592C26.2311 37.945 26.7091 36.8825 28.2503 34.3575C29.5185 32.3016 30.2501 30.2181 30.6208 27.6655C30.8646 25.9407 30.7769 22.9328 30.4257 21.2632C29.2453 15.675 26.0847 11.9082 22.0462 11.2735C21.5292 11.1907 21.0317 11.1355 20.9342 11.1355C20.8366 11.1493 20.3976 11.2045 19.9587 11.2735ZM23.3436 13.1914C26.3091 14.4056 28.66 17.8137 29.4502 22.0911C29.7233 23.5537 29.7038 26.6858 29.4112 28.1346C28.9624 30.3423 28.4259 31.6669 27.0993 33.8056C25.6653 36.1236 25.3044 37.0343 24.9629 39.1592C24.9044 39.5455 24.8947 39.5455 24.0752 39.5455H23.2461V35.0612V30.5769H24.1045C25.1971 30.5769 25.8701 30.3009 26.3872 29.6386C27.7431 27.9138 27.4504 24.7403 25.8311 23.6089C25.5385 23.4019 25.2361 23.3329 24.6508 23.3329C23.9484 23.3329 23.8119 23.3743 23.3924 23.7468C22.4169 24.6023 22.0755 25.6786 22.0755 27.8862V29.0591H21.0122H19.9587L19.9099 27.4999C19.8416 25.3612 19.5392 24.5057 18.5735 23.7055C18.1833 23.3881 18.0175 23.3329 17.3444 23.3329C16.7688 23.3329 16.4664 23.4019 16.1738 23.6089C14.5545 24.7403 14.2618 27.9138 15.6177 29.6386C16.1348 30.3009 16.8078 30.5769 17.9004 30.5769H18.7588V35.0612V39.5455H17.9297C17.1102 39.5455 17.1005 39.5455 17.0517 39.1592C16.7396 37.1447 16.3201 36.096 14.8666 33.7366C12.9449 30.6458 12.2328 28.0104 12.3499 24.5195C12.4572 21.139 13.4131 18.2966 15.2276 15.951C16.3103 14.5298 17.7833 13.4397 19.1978 12.9982C20.1928 12.6809 22.3681 12.7912 23.3436 13.1914ZM17.9394 25.0715C18.6027 25.5268 18.7588 26.0097 18.7588 27.6655V29.0591H18.0565C17.1102 29.0591 16.6323 28.8521 16.2518 28.2864C15.7348 27.4999 15.7055 26.4237 16.1933 25.5958C16.681 24.7817 17.2663 24.6023 17.9394 25.0715ZM25.4799 25.1542C25.9482 25.651 26.1238 26.1339 26.1238 26.8928C26.1238 27.4171 26.0652 27.7345 25.8994 28.0656C25.5482 28.7555 25.1678 28.9625 24.1533 29.0315L23.2461 29.0867V27.6793C23.2461 26.4926 23.2753 26.1891 23.4412 25.8165C23.8606 24.8645 24.8849 24.5333 25.4799 25.1542ZM22.0755 35.0612V39.5455H21.0025H19.9294V35.0612V30.5769H21.0025H22.0755V35.0612ZM26.0555 41.4773C27.0115 42.3051 26.9724 44.1403 25.9774 44.8854C25.558 45.2027 25.5482 45.2027 21.0025 45.2027C16.4567 45.2027 16.4469 45.2027 16.0275 44.8854C15.0325 44.1403 14.9934 42.3051 15.9494 41.4773C16.2616 41.2151 16.4567 41.2013 21.0025 41.2013C25.5482 41.2013 25.7433 41.2151 26.0555 41.4773ZM24.7776 46.9551C25.158 47.2034 25.4604 47.7967 25.5482 48.4728C25.6458 49.1765 25.2848 50.0872 24.7678 50.4322C24.3776 50.7081 24.1923 50.7219 21.0025 50.7219C17.8126 50.7219 17.6273 50.7081 17.2371 50.4322C16.2226 49.7423 16.203 47.6588 17.2078 46.9551C17.5004 46.7619 17.9687 46.7205 20.9829 46.7205C24.007 46.7205 24.4752 46.7481 24.7776 46.9551ZM23.6363 52.4053C23.6363 52.7778 23.168 53.992 22.8559 54.4198C22.3096 55.2063 21.8316 55.4822 21.0025 55.4822C20.1733 55.4822 19.6953 55.2063 19.149 54.4198C18.8369 53.992 18.3686 52.7778 18.3686 52.4053C18.3686 52.2811 18.9637 52.2397 21.0025 52.2397C23.0412 52.2397 23.6363 52.2811 23.6363 52.4053Z" stroke="#FF3E54" stroke-width="0.2" mask="url(#path-4-outside-1_88_8505)"/>
<path d="M5.76292 17.3141L5.76294 17.3141C6.33865 17.7834 6.87299 18.2114 7.26961 18.5221C7.46787 18.6774 7.63196 18.8036 7.74968 18.8911C7.80847 18.9348 7.85613 18.9691 7.89088 18.9927C7.90817 19.0044 7.92295 19.0139 7.93466 19.0207C7.94044 19.024 7.94633 19.0272 7.95191 19.0297L7.95216 19.0298C7.9556 19.0314 7.96663 19.0363 7.97963 19.0363C8.00546 19.0363 8.03371 19.0264 8.05914 19.0147C8.08607 19.0022 8.11591 18.9848 8.14669 18.9639C8.20811 18.9223 8.27652 18.8649 8.33739 18.8004M5.76292 17.3141L8.30154 18.7656M5.76292 17.3141C4.65784 16.4121 4.05254 15.901 3.76181 15.537C3.61544 15.3537 3.54394 15.2021 3.53201 15.0518C3.52012 14.9022 3.56813 14.7622 3.6421 14.6052M5.76292 17.3141L3.68748 14.6262M8.33739 18.8004C8.33757 18.8002 8.33775 18.8 8.33792 18.7999L8.30154 18.7656M8.33739 18.8004C8.3372 18.8006 8.33701 18.8008 8.33681 18.801L8.30154 18.7656M8.33739 18.8004C8.48118 18.6569 8.55368 18.4184 8.56245 18.1845C8.57124 17.95 8.51662 17.7052 8.38921 17.5475L8.38782 17.5458L8.38778 17.5458C8.36076 17.5152 8.28159 17.4429 8.16576 17.3415C8.04853 17.2388 7.89066 17.1036 7.70336 16.9457C7.32875 16.6298 6.8359 16.2226 6.31379 15.8016M8.30154 18.7656C8.56492 18.5034 8.58443 17.8687 8.35031 17.5789C8.25277 17.4685 7.32605 16.6821 6.28228 15.8404M6.31379 15.8016C6.31383 15.8016 6.31387 15.8016 6.31391 15.8017L6.28228 15.8404M6.31379 15.8016C6.31375 15.8015 6.3137 15.8015 6.31366 15.8015L6.28228 15.8404M6.31379 15.8016C5.81142 15.3911 5.41381 15.0731 5.09599 14.8364C4.7787 14.6 4.53844 14.4426 4.35129 14.3549C4.16521 14.2678 4.02067 14.2444 3.902 14.2944C3.78472 14.3439 3.70858 14.459 3.6421 14.6052M6.28228 15.8404C4.27277 14.1984 3.95086 14.0466 3.68748 14.6262M3.68748 14.6262L3.64225 14.6048C3.6422 14.605 3.64215 14.6051 3.6421 14.6052M3.68748 14.6262L3.64196 14.6055C3.642 14.6054 3.64205 14.6053 3.6421 14.6052" fill="#F69320" stroke="#FF3E54" stroke-width="0.1"/>
<path d="M33.597 17.574L33.597 17.574C33.4726 17.7194 33.4263 17.9627 33.44 18.1942C33.4537 18.4256 33.5286 18.6639 33.6676 18.8006C33.7284 18.865 33.7968 18.9223 33.8582 18.9639C33.8889 18.9848 33.9188 19.0022 33.9457 19.0147C33.9711 19.0264 33.9994 19.0363 34.0252 19.0363C34.0382 19.0363 34.0493 19.0314 34.0527 19.0298C34.0528 19.0298 34.0529 19.0298 34.0529 19.0297C34.0585 19.0272 34.0644 19.024 34.0702 19.0207C34.0819 19.0139 34.0967 19.0044 34.114 18.9927C34.1487 18.9691 34.1964 18.9348 34.2552 18.8911C34.3729 18.8036 34.537 18.6774 34.7352 18.5221C35.1319 18.2114 35.6662 17.7834 36.2419 17.3141L36.2419 17.3141C37.347 16.4121 37.9523 15.901 38.243 15.537C38.3894 15.3537 38.4609 15.2021 38.4728 15.0518C38.4847 14.9021 38.4367 14.7621 38.3627 14.6051M33.597 17.574L38.3174 14.6262M33.597 17.574L33.598 17.5729C33.6223 17.5462 33.698 17.4768 33.8106 17.3772C33.9244 17.2765 34.0786 17.1426 34.2622 16.9856C34.6295 16.6715 35.115 16.2642 35.6323 15.8432M33.597 17.574L35.664 15.8818M38.3627 14.6051C38.3627 14.605 38.3626 14.6049 38.3626 14.6048L38.3174 14.6262M38.3627 14.6051C38.3627 14.6051 38.3628 14.6052 38.3628 14.6053L38.3174 14.6262M38.3627 14.6051C38.2936 14.4549 38.2135 14.3382 38.0916 14.289C37.9687 14.2393 37.8194 14.2644 37.6278 14.355C37.4351 14.4461 37.1891 14.6087 36.8661 14.8521C36.5426 15.0958 36.1395 15.4223 35.6323 15.8432M38.3174 14.6262C38.0442 14.0328 37.6931 14.1984 35.664 15.8818M35.6323 15.8432C35.6324 15.8431 35.6324 15.8431 35.6325 15.843L35.664 15.8818M35.6323 15.8432C35.6322 15.8432 35.6322 15.8432 35.6321 15.8433L35.664 15.8818" fill="#F69320" stroke="#FF3E54" stroke-width="0.1"/>
<path d="M3.87378 29.6335C2.85022 29.6542 2.2406 29.6577 1.86116 29.6316C1.4828 29.6057 1.32084 29.5499 1.20489 29.4406C1.03602 29.2838 0.952594 29.0344 0.95006 28.7889C0.947527 28.5435 1.02567 28.291 1.19382 28.1271C1.30081 28.016 1.45536 27.9641 1.82843 27.9399C2.20397 27.9156 2.81597 27.9191 3.85403 27.9329L3.85416 27.9329C4.71751 27.9467 5.32862 27.9674 5.73521 28.0004C5.93831 28.0168 6.09214 28.0364 6.2015 28.0602C6.25613 28.0721 6.30134 28.0853 6.3367 28.1006C6.37092 28.1153 6.40179 28.1343 6.42071 28.161C6.46605 28.2252 6.49692 28.3217 6.51682 28.4282C6.537 28.5361 6.54694 28.66 6.54694 28.7832C6.54694 28.9064 6.537 29.0303 6.51682 29.1382C6.49692 29.2447 6.46605 29.3413 6.42071 29.4054C6.40188 29.432 6.3713 29.451 6.33729 29.4658C6.3022 29.481 6.2574 29.4943 6.20328 29.5062C6.09495 29.53 5.94262 29.5496 5.74135 29.5661C5.33841 29.599 4.73219 29.6197 3.87378 29.6335ZM3.87378 29.6335C3.87375 29.6335 3.87371 29.6335 3.87368 29.6335L3.87287 29.5835L3.87388 29.6335C3.87385 29.6335 3.87382 29.6335 3.87378 29.6335Z" fill="#F69320" stroke="#FF3E54" stroke-width="0.1"/>
<path d="M35.7768 29.5306L35.7768 29.5306C35.8008 29.5436 35.8401 29.553 35.8848 29.561C35.932 29.5694 35.9928 29.5774 36.065 29.5849C36.2096 29.5999 36.4026 29.6133 36.6298 29.6246C37.0844 29.647 37.6779 29.6608 38.2979 29.6608C38.927 29.6608 39.4116 29.6574 39.7842 29.6401C40.156 29.6228 40.4205 29.5916 40.6074 29.5345C40.7963 29.4767 40.9118 29.3905 40.9765 29.2606C41.0391 29.135 41.0501 28.9756 41.0501 28.783C41.0501 28.5905 41.0397 28.431 40.9775 28.3056C40.913 28.1757 40.7972 28.0899 40.6071 28.0331C40.419 27.9768 40.152 27.947 39.7757 27.9316L35.7768 29.5306ZM35.7768 29.5306L35.7763 29.5303M35.7768 29.5306L35.7763 29.5303M35.7763 29.5303C35.5436 29.4002 35.4314 29.0877 35.4251 28.7909M35.7763 29.5303L35.4251 28.7909M35.4251 28.7909C35.422 28.6405 35.4456 28.4888 35.4977 28.3582M35.4251 28.7909L35.4977 28.3582M35.4977 28.3582C35.5497 28.228 35.6314 28.1157 35.7463 28.0498M35.4977 28.3582L35.7463 28.0498M35.7463 28.0498C35.7592 28.0423 35.7754 28.0367 35.7914 28.0322C35.8084 28.0274 35.8287 28.0229 35.8517 28.0187C35.8978 28.0103 35.9576 28.0023 36.0288 27.9948C36.1714 27.9798 36.363 27.9664 36.5896 27.9552C37.0429 27.9327 37.6388 27.9189 38.2685 27.9189C38.2685 27.9189 38.2685 27.9189 38.2684 27.9189L35.7463 28.0498Z" fill="#F69320" stroke="#FF3E54" stroke-width="0.1"/>
<path d="M5.76292 40.2519L5.76294 40.2519C6.33865 39.7826 6.87299 39.3547 7.26961 39.044C7.46787 38.8887 7.63196 38.7624 7.74968 38.675C7.80847 38.6313 7.85613 38.5969 7.89088 38.5734C7.90817 38.5616 7.92295 38.5521 7.93466 38.5453C7.94044 38.542 7.94633 38.5388 7.95191 38.5363L7.95216 38.5362C7.9556 38.5347 7.96663 38.5297 7.97963 38.5297C8.00546 38.5297 8.03371 38.5396 8.05914 38.5514C8.08607 38.5638 8.11591 38.5813 8.14669 38.6021C8.20811 38.6438 8.27652 38.7011 8.33738 38.7656C8.48118 38.9092 8.55368 39.1476 8.56245 39.3816C8.57124 39.616 8.51662 39.8608 8.38921 40.0185L8.38924 40.0186L8.38778 40.0202C8.36076 40.0508 8.28159 40.1231 8.16576 40.2246C8.04853 40.3273 7.89066 40.4624 7.70336 40.6204C7.32875 40.9362 6.8359 41.3434 6.31379 41.7645C5.81142 42.1749 5.41381 42.4929 5.09599 42.7297C4.7787 42.966 4.53844 43.1234 4.35129 43.2111C4.16521 43.2982 4.02067 43.3217 3.902 43.2716C3.78472 43.2221 3.70858 43.1071 3.6421 42.9609C3.56813 42.8039 3.52012 42.6639 3.53201 42.5142C3.54394 42.3639 3.61544 42.2123 3.76181 42.029C4.05254 41.6651 4.65784 41.154 5.76292 40.2519Z" fill="#F69320" stroke="#FF3E54" stroke-width="0.1"/>
<path d="M33.598 39.9932L33.598 39.9932L33.597 39.9921C33.4726 39.8467 33.4263 39.6034 33.44 39.3719C33.4537 39.1405 33.5286 38.9022 33.6676 38.7655C33.7284 38.7011 33.7968 38.6438 33.8582 38.6022C33.8889 38.5813 33.9188 38.5639 33.9457 38.5514C33.9711 38.5397 33.9994 38.5298 34.0252 38.5298C34.0382 38.5298 34.0492 38.5347 34.0527 38.5363L34.0529 38.5364C34.0585 38.5389 34.0644 38.5421 34.0702 38.5454C34.0819 38.5522 34.0967 38.5617 34.114 38.5734C34.1487 38.597 34.1964 38.6314 34.2552 38.675C34.3729 38.7625 34.537 38.8887 34.7352 39.044C35.1319 39.3548 35.6662 39.7827 36.2419 40.252L36.2419 40.252C37.347 41.154 37.9523 41.6651 38.243 42.0291C38.3894 42.2124 38.4609 42.364 38.4728 42.5143C38.4847 42.6639 38.4367 42.8039 38.3628 42.9609C38.2964 43.1069 38.2208 43.2222 38.1038 43.2713C37.9854 43.321 37.841 43.2964 37.6545 43.2076C37.4668 43.1182 37.2251 42.9582 36.9046 42.718C36.5836 42.4774 36.1811 42.1543 35.6715 41.7369C35.1445 41.309 34.6492 40.8983 34.2747 40.5825C34.0874 40.4246 33.9302 40.2903 33.8142 40.1894C33.6997 40.0897 33.6224 40.0201 33.598 39.9932Z" fill="#F69320" stroke="#FF3E54" stroke-width="0.1"/>
</svg>
