<svg width="40" height="57" viewBox="0 0 40 57" fill="none" xmlns="http://www.w3.org/2000/svg">
<path d="M19.3359 0.620106C19.2109 0.741661 19.0469 0.91847 18.9844 1.02898C18.9219 1.12843 18.414 2.4987 17.8515 4.04577L16.8359 6.88576L14.5781 7.34988C12.4375 7.7919 12.3047 7.83611 12.039 8.13447C11.5469 8.687 11.3672 9.62629 11.5937 10.3777C11.664 10.6208 12.3203 11.6154 13.3281 13.0188L14.9531 15.2621L14.5703 18.4888L14.1797 21.7266L14.3359 22.2571C14.4453 22.6107 14.6015 22.898 14.8047 23.0969C15.0859 23.3842 15.1719 23.4063 15.625 23.3732C16.1015 23.34 16.2422 23.2516 18.0625 21.8813L20 20.4337L21.9297 21.8813C23.7344 23.2295 23.8984 23.329 24.375 23.3732C24.8437 23.4174 24.9062 23.3953 25.2031 23.0969C25.4297 22.8648 25.5703 22.5996 25.6719 22.235L25.8125 21.7045L25.4297 18.4778L25.0469 15.251L26.7031 12.9525C28.1094 10.9855 28.3672 10.5766 28.4453 10.1678C28.5937 9.44948 28.4453 8.76435 28.0469 8.24498C27.6875 7.7919 27.7734 7.81401 24.9219 7.23938L23.164 6.88576L22.1484 4.04577C21.1094 1.13948 20.9765 0.841118 20.6094 0.575905C20.3047 0.354895 19.6172 0.376993 19.3359 0.620106ZM20.8594 5.70335C21.7109 8.17867 22.0234 8.8417 22.4453 9.02956C22.5859 9.09587 23.4687 9.29478 24.414 9.48264C25.3594 9.6705 26.2187 9.85835 26.3203 9.89151C26.4922 9.95781 26.375 10.1457 25.0156 12.0132C23.7109 13.8144 23.5156 14.1349 23.4375 14.5548C23.3594 14.9858 23.3906 15.3836 23.6875 17.9031C23.8828 19.4723 24.0312 20.7542 24.0156 20.7542C24.0078 20.7542 23.1953 20.1575 22.2109 19.4281C20.5703 18.2126 20.3828 18.1021 20 18.1021C19.6094 18.1021 19.4297 18.2126 17.7969 19.4281C16.8125 20.1575 16 20.7542 15.9844 20.7542C15.9765 20.7542 16.1172 19.4723 16.3125 17.9031C16.6172 15.3726 16.6406 14.9858 16.5625 14.5548C16.4844 14.1349 16.2812 13.8034 14.9765 12.0132C13.5078 9.99096 13.4844 9.94676 13.7109 9.88046C13.8437 9.8473 14.7031 9.6705 15.625 9.48264C16.5469 9.29478 17.414 9.08482 17.5547 9.02956C17.9765 8.8417 18.2969 8.17867 19.1406 5.6923C19.5937 4.37729 19.9765 3.29434 20 3.29434C20.0234 3.30539 20.4062 4.37729 20.8594 5.70335Z" fill="#F69320"/>
<path d="M6.38285 4.46591C6.12504 4.83058 6.05473 5.2726 6.19535 5.73672C6.25785 5.94669 6.75004 6.72022 7.2891 7.46061C8.24223 8.78667 8.27348 8.81982 8.61723 8.81982C9.03129 8.81982 9.34379 8.45516 9.42191 7.88053C9.49223 7.33905 9.33598 7.02964 8.25785 5.52676C7.30473 4.2007 7.28129 4.1786 6.93754 4.1786C6.6641 4.1786 6.5391 4.2449 6.38285 4.46591Z" fill="#F69320"/>
<path d="M31.7422 5.52676C30.6484 7.05174 30.5078 7.33905 30.5859 7.90263C30.6641 8.47726 30.9609 8.81982 31.3906 8.81982C31.7422 8.81982 31.7578 8.80877 32.7734 7.3501C33.4609 6.37766 33.8203 5.79198 33.8438 5.58202C33.9531 4.77533 33.6172 4.1786 33.0625 4.1786C32.7188 4.1786 32.6953 4.2007 31.7422 5.52676Z" fill="#F69320"/>
<path d="M4.42973 11.0852C4.2188 11.3946 4.14067 11.7593 4.20317 12.1903C4.2188 12.3339 4.32817 12.5881 4.42973 12.7428L4.63286 13.019H6.18755H7.75005L7.97661 12.6986C8.1563 12.4444 8.20317 12.2787 8.20317 11.914C8.20317 11.5493 8.1563 11.3836 7.97661 11.1294L7.75005 10.8089H6.18755H4.63286L4.42973 11.0852Z" fill="#F69320"/>
<path d="M32.0234 11.1294C31.8438 11.3836 31.7969 11.5493 31.7969 11.914C31.7969 12.2787 31.8438 12.4444 32.0234 12.6986L32.25 13.019H33.8125H35.3672L35.5781 12.7317C35.8672 12.3118 35.8672 11.5162 35.5781 11.0962L35.3672 10.8089H33.8125H32.25L32.0234 11.1294Z" fill="#F69320"/>
<path d="M7.28906 16.3564C6.74999 17.1078 6.25781 17.8813 6.19531 18.0913C5.96093 18.8759 6.32812 19.6494 6.93749 19.6494C7.28124 19.6494 7.30468 19.6273 8.25781 18.2902C9.33593 16.7984 9.49218 16.489 9.42187 15.9475C9.34374 15.3729 9.03124 15.0082 8.61718 15.0082C8.27343 15.0082 8.24218 15.0413 7.28906 16.3564Z" fill="#F69320"/>
<path d="M30.836 15.2734C30.5781 15.616 30.4922 16.2016 30.6485 16.6216C30.7188 16.7984 31.2031 17.5498 31.7422 18.2902C32.6953 19.6273 32.7188 19.6494 33.0625 19.6494C33.4766 19.6494 33.7813 19.3068 33.8594 18.7543C33.9375 18.1907 33.7344 17.7819 32.711 16.3564C31.7578 15.0413 31.7266 15.0082 31.3828 15.0082C31.125 15.0082 30.9844 15.0745 30.836 15.2734Z" fill="#F69320"/>
<path d="M11.6094 25.9038L11.4062 26.2022V30.766V35.341H8.48438H5.57031L5.35938 35.6283L5.15625 35.9266V40.4905V45.0654H2.78125H0.414062L0.203125 45.3527L0 45.6511V51.0327V56.4143L0.203125 56.7127L0.414062 57H20H39.5859L39.7969 56.7127L40 56.4143V51.0327V45.6511L39.7969 45.3527L39.5859 45.0654H37.2188H34.8438V40.4905V35.9266L34.6406 35.6283L34.4297 35.341H31.5156H28.5938V30.766V26.2022L28.3906 25.9038L28.1797 25.6165H20H11.8203L11.6094 25.9038ZM27.0312 31.5838V35.341H20H12.9688V31.5838V27.8266H20H27.0312V31.5838ZM33.2812 41.3082V45.0654H31.8672H30.4531L30.2266 45.3859C30.0469 45.64 30 45.8058 30 46.1705C30 46.5351 30.0469 46.7009 30.2266 46.9551L30.4531 47.2755H34.4453H38.4375V51.0327V54.7899H20H1.5625V51.0327V47.2755H13.1953H24.8203L25.0312 46.9882C25.3203 46.5683 25.3203 45.7727 25.0312 45.3527L24.8203 45.0654H15.7734H6.71875V43.7394V42.4133H10.2266H13.7266L13.9375 42.126C14.2266 41.7061 14.2266 40.9104 13.9375 40.4905L13.7266 40.2032H10.2266H6.71875V38.8771V37.5511H20H33.2812V41.3082Z" fill="#F69320"/>
<path d="M16.2969 40.4903C16.1328 40.7224 16.0938 40.8881 16.0938 41.308C16.0938 41.728 16.1328 41.8937 16.2969 42.1258C16.4609 42.3578 16.5781 42.4131 16.875 42.4131C17.1719 42.4131 17.2891 42.3578 17.4531 42.1258C17.7422 41.7059 17.7422 40.9102 17.4531 40.4903C17.2891 40.2582 17.1719 40.203 16.875 40.203C16.5781 40.203 16.4609 40.2582 16.2969 40.4903Z" fill="#F69320"/>
<path d="M27.1485 45.3307C26.9297 45.6511 26.836 46.06 26.9063 46.4578C27.1016 47.5629 28.2891 47.5629 28.4844 46.4578C28.5547 46.06 28.461 45.6511 28.2422 45.3307C28.1016 45.1318 27.9688 45.0655 27.6954 45.0655C27.4219 45.0655 27.2891 45.1318 27.1485 45.3307Z" fill="#F69320"/>
</svg>
