<svg width="51" height="51" viewBox="0 0 51 51" fill="none" xmlns="http://www.w3.org/2000/svg">
<path d="M45.9204 12.9123C45.706 13.6591 45.5392 14.4246 45.2606 15.1466C45.0679 15.6458 44.7581 16.1126 44.4363 16.5465C42.6105 19.0093 40.7652 21.4578 38.9263 23.9107C38.8795 23.9732 38.8262 24.0306 38.7526 24.1182C38.6645 24.0184 38.5833 23.9378 38.5155 23.8474C36.7071 21.4377 34.8955 19.0305 33.094 16.6157C30.4199 13.0311 31.3597 8.25179 35.1841 5.97592C35.9563 5.51634 36.7968 5.2397 37.6845 5.10194C37.8002 5.08409 37.9132 5.047 38.0275 5.01855C38.5058 5.01855 38.9843 5.01855 39.4626 5.01855C39.5635 5.04533 39.6628 5.08019 39.7654 5.09803C42.5232 5.57937 44.439 7.10981 45.4575 9.71949C45.6764 10.28 45.7695 10.8896 45.9207 11.4767C45.9204 11.9555 45.9204 12.4337 45.9204 12.9123ZM38.8028 8.61098C36.8713 8.5552 35.229 10.1411 35.1615 12.1267C35.096 14.0548 36.6753 15.6996 38.667 15.7774C40.6034 15.853 42.2809 14.2339 42.3291 12.2427C42.376 10.3093 40.7822 8.66815 38.8028 8.61098Z" fill="#F69320"/>
<path d="M5.13135 7.42188C13.577 7.42188 21.9989 7.42188 30.4811 7.42188C28.5119 11.1125 28.7838 14.6455 31.1172 18.0073C22.4523 26.6721 13.785 35.3394 5.13135 43.9931C5.13135 31.8558 5.13135 19.6582 5.13135 7.42188ZM20.0262 13.6834C19.0866 12.9985 18.1025 12.5439 17.0007 12.3222C13.7142 11.6613 10.465 13.9227 9.96085 17.2415C9.57294 19.7957 10.8396 22.3114 13.0968 23.4695C15.4384 24.6709 18.1792 24.2682 20.0504 22.4285C21.5772 20.9276 22.0025 19.0639 21.8115 17.0112C20.2138 17.0112 18.6421 17.0112 17.0816 17.0112C17.0816 17.8093 17.0816 18.5745 17.0816 19.3788C17.7983 19.3788 18.4926 19.3788 19.2428 19.3788C18.6583 20.7486 17.6951 21.5668 16.2706 21.723C14.8135 21.8828 13.6288 21.3167 12.8424 20.0754C11.9894 18.729 12.1126 17.1088 13.0795 15.9113C14.0374 14.725 15.6613 14.2774 17.1502 14.8273C17.6541 15.0136 18.1248 15.2897 18.6368 15.5373C19.0839 14.9411 19.544 14.3267 20.0262 13.6834Z" fill="#F69320"/>
<path d="M6.81787 45.8129C12.6452 39.9327 18.4206 34.1045 24.1595 28.3135C30.0133 34.1673 35.8484 40.0027 41.6587 45.8129C30.1257 45.8129 18.5154 45.8129 6.81787 45.8129Z" fill="#F69320"/>
<path d="M26.0864 26.677C28.277 24.4087 30.4148 22.195 32.5933 19.9395C34.6693 22.7073 36.6866 25.397 38.7444 28.1408C40.3292 26.0281 41.8862 23.9521 43.4928 21.8104C43.4928 29.268 43.4928 36.6492 43.4928 43.8499C37.7296 38.164 31.8691 32.3821 26.0864 26.677Z" fill="#F69320"/>
<path d="M39.9376 12.2056C39.9314 12.8562 39.384 13.3939 38.7339 13.3878C38.0833 13.3816 37.5457 12.8342 37.5518 12.1841C37.5579 11.5335 38.1054 10.9959 38.7554 11.002C39.406 11.0081 39.9437 11.5556 39.9376 12.2056Z" fill="#F69320"/>
</svg>
